<mxfile host="Electron" modified="2024-03-22T20:08:13.034Z" agent="Mozilla/5.0 (Windows NT 10.0; Win64; x64) AppleWebKit/537.36 (KHTML, like Gecko) draw.io/23.1.5 Chrome/120.0.6099.109 Electron/28.1.0 Safari/537.36" etag="AvcJ-EZmOBpLWck--MO6" version="23.1.5" type="device">
  <diagram id="R2lEEEUBdFMjLlhIrx00" name="Page-1">
    <mxGraphModel dx="5800" dy="3284" grid="0" gridSize="10" guides="1" tooltips="1" connect="1" arrows="1" fold="1" page="0" pageScale="1" pageWidth="850" pageHeight="1100" background="#ffffff" math="0" shadow="0" extFonts="Permanent Marker^https://fonts.googleapis.com/css?family=Permanent+Marker">
      <root>
        <mxCell id="0" />
        <mxCell id="1" parent="0" />
        <mxCell id="jC8zS6o9foFw1oIYdHK3-1" value="Person" style="whiteSpace=wrap;html=1;align=center;fillColor=#60a917;fontColor=#ffffff;strokeColor=#2D7600;" parent="1" vertex="1">
          <mxGeometry x="450" y="-340" width="100" height="40" as="geometry" />
        </mxCell>
        <mxCell id="jC8zS6o9foFw1oIYdHK3-44" value="" style="endArrow=none;html=1;rounded=0;entryX=0;entryY=0;entryDx=0;entryDy=0;exitX=0.5;exitY=1;exitDx=0;exitDy=0;" parent="1" source="jC8zS6o9foFw1oIYdHK3-45" target="jC8zS6o9foFw1oIYdHK3-1" edge="1">
          <mxGeometry relative="1" as="geometry">
            <mxPoint x="410" y="-370" as="sourcePoint" />
            <mxPoint x="110" y="160" as="targetPoint" />
          </mxGeometry>
        </mxCell>
        <mxCell id="jC8zS6o9foFw1oIYdHK3-47" value="" style="group;" parent="1" vertex="1" connectable="0">
          <mxGeometry x="580" y="-420" width="100" height="40" as="geometry" />
        </mxCell>
        <mxCell id="jC8zS6o9foFw1oIYdHK3-48" value="dob" style="ellipse;whiteSpace=wrap;html=1;align=center;fillColor=#1ba1e2;fontColor=#ffffff;strokeColor=#006EAF;" parent="jC8zS6o9foFw1oIYdHK3-47" vertex="1">
          <mxGeometry width="100" height="40" as="geometry" />
        </mxCell>
        <mxCell id="jC8zS6o9foFw1oIYdHK3-49" value="" style="endArrow=none;html=1;rounded=0;entryX=1;entryY=0;entryDx=0;entryDy=0;exitX=0.5;exitY=1;exitDx=0;exitDy=0;" parent="1" source="jC8zS6o9foFw1oIYdHK3-48" target="jC8zS6o9foFw1oIYdHK3-1" edge="1">
          <mxGeometry relative="1" as="geometry">
            <mxPoint x="190" y="-100" as="sourcePoint" />
            <mxPoint x="730" y="-260" as="targetPoint" />
          </mxGeometry>
        </mxCell>
        <mxCell id="jC8zS6o9foFw1oIYdHK3-50" value="" style="group;" parent="1" vertex="1" connectable="0">
          <mxGeometry x="640" y="-360" width="100" height="40" as="geometry" />
        </mxCell>
        <mxCell id="jC8zS6o9foFw1oIYdHK3-51" value="nationality" style="ellipse;whiteSpace=wrap;html=1;align=center;fillColor=#1ba1e2;fontColor=#ffffff;strokeColor=#006EAF;" parent="jC8zS6o9foFw1oIYdHK3-50" vertex="1">
          <mxGeometry width="100" height="40" as="geometry" />
        </mxCell>
        <mxCell id="jC8zS6o9foFw1oIYdHK3-52" value="" style="endArrow=none;html=1;rounded=0;entryX=1;entryY=0.5;entryDx=0;entryDy=0;exitX=0;exitY=1;exitDx=0;exitDy=0;" parent="1" source="jC8zS6o9foFw1oIYdHK3-51" target="jC8zS6o9foFw1oIYdHK3-1" edge="1">
          <mxGeometry relative="1" as="geometry">
            <mxPoint x="120" y="-120" as="sourcePoint" />
            <mxPoint x="660" y="-280" as="targetPoint" />
          </mxGeometry>
        </mxCell>
        <mxCell id="jC8zS6o9foFw1oIYdHK3-53" value="" style="group" parent="1" vertex="1" connectable="0">
          <mxGeometry x="270" y="-360" width="100" height="40" as="geometry" />
        </mxCell>
        <mxCell id="jC8zS6o9foFw1oIYdHK3-54" value="&lt;u&gt;SSN&lt;/u&gt;" style="ellipse;whiteSpace=wrap;html=1;align=center;fillColor=#1ba1e2;fontColor=#ffffff;strokeColor=#006EAF;" parent="jC8zS6o9foFw1oIYdHK3-53" vertex="1">
          <mxGeometry width="100" height="40" as="geometry" />
        </mxCell>
        <mxCell id="jC8zS6o9foFw1oIYdHK3-55" value="" style="endArrow=none;html=1;rounded=0;entryX=0;entryY=0.5;entryDx=0;entryDy=0;exitX=1;exitY=1;exitDx=0;exitDy=0;" parent="1" source="jC8zS6o9foFw1oIYdHK3-54" target="jC8zS6o9foFw1oIYdHK3-1" edge="1">
          <mxGeometry relative="1" as="geometry">
            <mxPoint x="-90" y="-100" as="sourcePoint" />
            <mxPoint x="450" y="-260" as="targetPoint" />
          </mxGeometry>
        </mxCell>
        <mxCell id="jC8zS6o9foFw1oIYdHK3-56" value="" style="group;" parent="1" vertex="1" connectable="0">
          <mxGeometry x="470" y="-430" width="100" height="40" as="geometry" />
        </mxCell>
        <mxCell id="jC8zS6o9foFw1oIYdHK3-57" value="address" style="ellipse;whiteSpace=wrap;html=1;align=center;fillColor=#1ba1e2;fontColor=#ffffff;strokeColor=#006EAF;" parent="jC8zS6o9foFw1oIYdHK3-56" vertex="1">
          <mxGeometry width="100" height="40" as="geometry" />
        </mxCell>
        <mxCell id="jC8zS6o9foFw1oIYdHK3-58" value="" style="endArrow=none;html=1;rounded=0;entryX=0.5;entryY=0;entryDx=0;entryDy=0;exitX=0.5;exitY=1;exitDx=0;exitDy=0;" parent="1" source="jC8zS6o9foFw1oIYdHK3-57" target="jC8zS6o9foFw1oIYdHK3-1" edge="1">
          <mxGeometry relative="1" as="geometry">
            <mxPoint x="100" y="-170" as="sourcePoint" />
            <mxPoint x="640" y="-330" as="targetPoint" />
          </mxGeometry>
        </mxCell>
        <mxCell id="jC8zS6o9foFw1oIYdHK3-45" value="name" style="ellipse;whiteSpace=wrap;html=1;align=center;fillColor=#1ba1e2;fontColor=#ffffff;strokeColor=#006EAF;" parent="1" vertex="1">
          <mxGeometry x="360" y="-420" width="100" height="40" as="geometry" />
        </mxCell>
        <mxCell id="jC8zS6o9foFw1oIYdHK3-150" value="ISA" style="triangle;whiteSpace=wrap;html=1;direction=north;container=0;fillColor=#a20025;fontColor=#ffffff;strokeColor=#6F0000;" parent="1" vertex="1">
          <mxGeometry x="445" y="-240" width="110" height="90" as="geometry" />
        </mxCell>
        <mxCell id="jC8zS6o9foFw1oIYdHK3-151" value="" style="endArrow=none;html=1;rounded=0;entryX=0;entryY=0.5;entryDx=0;entryDy=0;exitX=1;exitY=0.5;exitDx=0;exitDy=0;" parent="1" source="jC8zS6o9foFw1oIYdHK3-152" target="jC8zS6o9foFw1oIYdHK3-150" edge="1">
          <mxGeometry relative="1" as="geometry">
            <mxPoint x="470" y="430" as="sourcePoint" />
            <mxPoint x="390" y="740" as="targetPoint" />
          </mxGeometry>
        </mxCell>
        <mxCell id="jC8zS6o9foFw1oIYdHK3-153" value="fixes" style="shape=rhombus;perimeter=rhombusPerimeter;whiteSpace=wrap;html=1;align=center;container=0;fillColor=#d80073;fontColor=#ffffff;strokeColor=#A50040;rotation=0;" parent="1" vertex="1">
          <mxGeometry x="-200" y="70" width="120" height="60" as="geometry" />
        </mxCell>
        <mxCell id="jC8zS6o9foFw1oIYdHK3-157" value="" style="endArrow=none;html=1;rounded=0;exitX=0.25;exitY=0;exitDx=0;exitDy=0;entryX=0;entryY=0.5;entryDx=0;entryDy=0;" parent="1" source="jC8zS6o9foFw1oIYdHK3-158" target="jC8zS6o9foFw1oIYdHK3-150" edge="1">
          <mxGeometry relative="1" as="geometry">
            <mxPoint x="480" y="490" as="sourcePoint" />
            <mxPoint x="505" y="-120" as="targetPoint" />
          </mxGeometry>
        </mxCell>
        <mxCell id="jC8zS6o9foFw1oIYdHK3-159" value="drives" style="shape=rhombus;perimeter=rhombusPerimeter;whiteSpace=wrap;html=1;align=center;container=0;fillColor=#d80073;fontColor=#ffffff;strokeColor=#A50040;" parent="1" vertex="1">
          <mxGeometry x="110" y="200" width="120" height="60" as="geometry" />
        </mxCell>
        <mxCell id="jC8zS6o9foFw1oIYdHK3-163" value="communictes" style="shape=rhombus;perimeter=rhombusPerimeter;whiteSpace=wrap;html=1;align=center;container=0;fillColor=#d80073;fontColor=#ffffff;strokeColor=#A50040;" parent="1" vertex="1">
          <mxGeometry x="760" y="100" width="120" height="60" as="geometry" />
        </mxCell>
        <mxCell id="jC8zS6o9foFw1oIYdHK3-164" value="Race_Engineer" style="whiteSpace=wrap;html=1;align=center;container=0;fillColor=#60a917;fontColor=#ffffff;strokeColor=#2D7600;" parent="1" vertex="1">
          <mxGeometry x="810" y="-50" width="100" height="40" as="geometry" />
        </mxCell>
        <mxCell id="jC8zS6o9foFw1oIYdHK3-165" value="" style="endArrow=none;html=1;rounded=0;entryX=0;entryY=0.5;entryDx=0;entryDy=0;exitX=0;exitY=0.5;exitDx=0;exitDy=0;" parent="1" source="jC8zS6o9foFw1oIYdHK3-164" target="jC8zS6o9foFw1oIYdHK3-150" edge="1">
          <mxGeometry relative="1" as="geometry">
            <mxPoint x="260" y="830" as="sourcePoint" />
            <mxPoint x="420" y="830" as="targetPoint" />
          </mxGeometry>
        </mxCell>
        <mxCell id="jC8zS6o9foFw1oIYdHK3-172" value="" style="endArrow=none;html=1;rounded=0;entryX=0;entryY=0.5;entryDx=0;entryDy=0;exitX=0.5;exitY=0;exitDx=0;exitDy=0;" parent="1" source="jC8zS6o9foFw1oIYdHK3-171" target="jC8zS6o9foFw1oIYdHK3-150" edge="1">
          <mxGeometry relative="1" as="geometry">
            <mxPoint x="370" y="770" as="sourcePoint" />
            <mxPoint x="530" y="770" as="targetPoint" />
          </mxGeometry>
        </mxCell>
        <mxCell id="jC8zS6o9foFw1oIYdHK3-175" value="Team" style="whiteSpace=wrap;html=1;align=center;container=0;fillColor=#60a917;fontColor=#ffffff;strokeColor=#2D7600;" parent="1" vertex="1">
          <mxGeometry x="1170" y="800" width="100" height="40" as="geometry" />
        </mxCell>
        <mxCell id="jC8zS6o9foFw1oIYdHK3-177" value="drives_for" style="shape=rhombus;perimeter=rhombusPerimeter;whiteSpace=wrap;html=1;align=center;container=0;fillColor=#d80073;fontColor=#ffffff;strokeColor=#A50040;" parent="1" vertex="1">
          <mxGeometry x="970" y="590" width="120" height="60" as="geometry" />
        </mxCell>
        <mxCell id="jC8zS6o9foFw1oIYdHK3-234" value="job" style="ellipse;whiteSpace=wrap;html=1;align=center;fillColor=#1ba1e2;fontColor=#ffffff;strokeColor=#006EAF;" parent="1" vertex="1">
          <mxGeometry x="930" y="-80" width="100" height="40" as="geometry" />
        </mxCell>
        <mxCell id="jC8zS6o9foFw1oIYdHK3-236" value="" style="endArrow=none;html=1;rounded=0;entryX=1;entryY=0;entryDx=0;entryDy=0;exitX=0;exitY=0.5;exitDx=0;exitDy=0;" parent="1" source="jC8zS6o9foFw1oIYdHK3-234" target="jC8zS6o9foFw1oIYdHK3-164" edge="1">
          <mxGeometry relative="1" as="geometry">
            <mxPoint x="545" y="330" as="sourcePoint" />
            <mxPoint x="705" y="330" as="targetPoint" />
          </mxGeometry>
        </mxCell>
        <mxCell id="jC8zS6o9foFw1oIYdHK3-248" value="makes" style="shape=rhombus;double=1;perimeter=rhombusPerimeter;whiteSpace=wrap;html=1;align=center;" parent="1" vertex="1">
          <mxGeometry x="-1160" y="380" width="120" height="60" as="geometry" />
        </mxCell>
        <mxCell id="jC8zS6o9foFw1oIYdHK3-249" value="" style="endArrow=none;html=1;rounded=0;entryX=0.5;entryY=0;entryDx=0;entryDy=0;exitX=0;exitY=1;exitDx=0;exitDy=0;" parent="1" source="jC8zS6o9foFw1oIYdHK3-155" target="jC8zS6o9foFw1oIYdHK3-248" edge="1">
          <mxGeometry relative="1" as="geometry">
            <mxPoint x="170" y="610" as="sourcePoint" />
            <mxPoint x="330" y="610" as="targetPoint" />
          </mxGeometry>
        </mxCell>
        <mxCell id="jC8zS6o9foFw1oIYdHK3-251" value="damages" style="shape=rhombus;perimeter=rhombusPerimeter;whiteSpace=wrap;html=1;align=center;fillColor=#d80073;fontColor=#ffffff;strokeColor=#A50040;" parent="1" vertex="1">
          <mxGeometry x="-40" y="1550" width="120" height="60" as="geometry" />
        </mxCell>
        <mxCell id="jC8zS6o9foFw1oIYdHK3-252" value="" style="endArrow=none;html=1;rounded=0;exitX=1;exitY=0.5;exitDx=0;exitDy=0;entryX=0;entryY=0.5;entryDx=0;entryDy=0;" parent="1" source="jC8zS6o9foFw1oIYdHK3-247" target="jC8zS6o9foFw1oIYdHK3-251" edge="1">
          <mxGeometry relative="1" as="geometry">
            <mxPoint x="150" y="640" as="sourcePoint" />
            <mxPoint x="310" y="640" as="targetPoint" />
          </mxGeometry>
        </mxCell>
        <mxCell id="jC8zS6o9foFw1oIYdHK3-253" value="" style="endArrow=none;html=1;rounded=0;entryX=1;entryY=0.5;entryDx=0;entryDy=0;exitX=0;exitY=0.25;exitDx=0;exitDy=0;" parent="1" source="jC8zS6o9foFw1oIYdHK3-254" target="jC8zS6o9foFw1oIYdHK3-251" edge="1">
          <mxGeometry relative="1" as="geometry">
            <mxPoint x="500" y="880" as="sourcePoint" />
            <mxPoint x="310" y="640" as="targetPoint" />
          </mxGeometry>
        </mxCell>
        <mxCell id="jC8zS6o9foFw1oIYdHK3-254" value="car_parts" style="whiteSpace=wrap;html=1;align=center;fillColor=#60a917;fontColor=#ffffff;strokeColor=#2D7600;" parent="1" vertex="1">
          <mxGeometry x="2110" y="1520" width="100" height="40" as="geometry" />
        </mxCell>
        <mxCell id="jC8zS6o9foFw1oIYdHK3-169" value="sponsors" style="shape=rhombus;perimeter=rhombusPerimeter;whiteSpace=wrap;html=1;align=center;container=0;fillColor=#d80073;fontColor=#ffffff;strokeColor=#A50040;" parent="1" vertex="1">
          <mxGeometry x="-895" y="220" width="120" height="60" as="geometry" />
        </mxCell>
        <mxCell id="jC8zS6o9foFw1oIYdHK3-262" value="listed_in" style="shape=rhombus;perimeter=rhombusPerimeter;whiteSpace=wrap;html=1;align=center;fillColor=#d80073;fontColor=#ffffff;strokeColor=#A50040;rotation=0;" parent="1" vertex="1">
          <mxGeometry x="710" y="750" width="120" height="60" as="geometry" />
        </mxCell>
        <mxCell id="jC8zS6o9foFw1oIYdHK3-264" value="" style="endArrow=none;html=1;rounded=0;entryX=0.5;entryY=0;entryDx=0;entryDy=0;exitX=0.5;exitY=1;exitDx=0;exitDy=0;" parent="1" source="jC8zS6o9foFw1oIYdHK3-262" target="jC8zS6o9foFw1oIYdHK3-261" edge="1">
          <mxGeometry relative="1" as="geometry">
            <mxPoint x="-20" y="480" as="sourcePoint" />
            <mxPoint x="140" y="460" as="targetPoint" />
          </mxGeometry>
        </mxCell>
        <mxCell id="jC8zS6o9foFw1oIYdHK3-266" value="Ranked" style="shape=rhombus;perimeter=rhombusPerimeter;whiteSpace=wrap;html=1;align=center;fillColor=#d80073;fontColor=#ffffff;strokeColor=#A50040;rotation=-15;" parent="1" vertex="1">
          <mxGeometry x="920" y="930" width="120" height="60" as="geometry" />
        </mxCell>
        <mxCell id="jC8zS6o9foFw1oIYdHK3-268" value="" style="endArrow=none;html=1;rounded=0;exitX=1;exitY=0;exitDx=0;exitDy=0;entryX=0;entryY=0.5;entryDx=0;entryDy=0;" parent="1" source="jC8zS6o9foFw1oIYdHK3-261" target="jC8zS6o9foFw1oIYdHK3-266" edge="1">
          <mxGeometry relative="1" as="geometry">
            <mxPoint x="250" y="620" as="sourcePoint" />
            <mxPoint x="113" y="677" as="targetPoint" />
            <Array as="points" />
          </mxGeometry>
        </mxCell>
        <mxCell id="jC8zS6o9foFw1oIYdHK3-275" value="affects" style="shape=rhombus;perimeter=rhombusPerimeter;whiteSpace=wrap;html=1;align=center;fillColor=#d80073;fontColor=#ffffff;strokeColor=#A50040;" parent="1" vertex="1">
          <mxGeometry x="-530" y="960" width="120" height="60" as="geometry" />
        </mxCell>
        <mxCell id="jC8zS6o9foFw1oIYdHK3-279" value="" style="endArrow=none;html=1;rounded=0;entryX=0.5;entryY=0;entryDx=0;entryDy=0;exitX=0;exitY=0.5;exitDx=0;exitDy=0;" parent="1" source="jC8zS6o9foFw1oIYdHK3-150" target="jC8zS6o9foFw1oIYdHK3-280" edge="1">
          <mxGeometry relative="1" as="geometry">
            <mxPoint x="570" y="-140" as="sourcePoint" />
            <mxPoint x="720" y="580" as="targetPoint" />
          </mxGeometry>
        </mxCell>
        <mxCell id="jC8zS6o9foFw1oIYdHK3-280" value="Engineer" style="whiteSpace=wrap;html=1;align=center;fillColor=#60a917;fontColor=#ffffff;strokeColor=#2D7600;" parent="1" vertex="1">
          <mxGeometry x="2080" y="-107.5" width="100" height="40" as="geometry" />
        </mxCell>
        <mxCell id="jC8zS6o9foFw1oIYdHK3-282" value="fabricates" style="shape=rhombus;perimeter=rhombusPerimeter;whiteSpace=wrap;html=1;align=center;fillColor=#d80073;fontColor=#ffffff;strokeColor=#A50040;rotation=0;" parent="1" vertex="1">
          <mxGeometry x="2070" y="450" width="120" height="60" as="geometry" />
        </mxCell>
        <mxCell id="jC8zS6o9foFw1oIYdHK3-284" value="" style="endArrow=none;html=1;rounded=0;exitX=0.5;exitY=0;exitDx=0;exitDy=0;entryX=0.5;entryY=1;entryDx=0;entryDy=0;" parent="1" source="jC8zS6o9foFw1oIYdHK3-282" target="jC8zS6o9foFw1oIYdHK3-280" edge="1">
          <mxGeometry relative="1" as="geometry">
            <mxPoint x="470" y="630" as="sourcePoint" />
            <mxPoint x="620" y="690" as="targetPoint" />
          </mxGeometry>
        </mxCell>
        <mxCell id="jC8zS6o9foFw1oIYdHK3-285" value="owns" style="shape=rhombus;perimeter=rhombusPerimeter;whiteSpace=wrap;html=1;align=center;fillColor=#d80073;fontColor=#ffffff;strokeColor=#A50040;rotation=0;" parent="1" vertex="1">
          <mxGeometry x="1170" y="450" width="120" height="60" as="geometry" />
        </mxCell>
        <mxCell id="jC8zS6o9foFw1oIYdHK3-291" value="monitors" style="shape=rhombus;perimeter=rhombusPerimeter;whiteSpace=wrap;html=1;align=center;fillColor=#d80073;fontColor=#ffffff;strokeColor=#A50040;" parent="1" vertex="1">
          <mxGeometry x="-60" y="310" width="120" height="60" as="geometry" />
        </mxCell>
        <mxCell id="jC8zS6o9foFw1oIYdHK3-293" value="" style="endArrow=none;html=1;rounded=0;entryX=0.5;entryY=1;entryDx=0;entryDy=0;exitX=0.25;exitY=0;exitDx=0;exitDy=0;" parent="1" source="jC8zS6o9foFw1oIYdHK3-254" target="jC8zS6o9foFw1oIYdHK3-282" edge="1">
          <mxGeometry relative="1" as="geometry">
            <mxPoint x="320" y="760" as="sourcePoint" />
            <mxPoint x="480" y="760" as="targetPoint" />
          </mxGeometry>
        </mxCell>
        <mxCell id="jC8zS6o9foFw1oIYdHK3-294" value="" style="endArrow=none;html=1;rounded=0;entryX=1;entryY=0.5;entryDx=0;entryDy=0;exitX=0;exitY=0.5;exitDx=0;exitDy=0;" parent="1" source="jC8zS6o9foFw1oIYdHK3-282" target="jC8zS6o9foFw1oIYdHK3-287" edge="1">
          <mxGeometry relative="1" as="geometry">
            <mxPoint x="320" y="760" as="sourcePoint" />
            <mxPoint x="480" y="760" as="targetPoint" />
          </mxGeometry>
        </mxCell>
        <mxCell id="jC8zS6o9foFw1oIYdHK3-295" value="works_in" style="shape=rhombus;perimeter=rhombusPerimeter;whiteSpace=wrap;html=1;align=center;fillColor=#d80073;fontColor=#ffffff;strokeColor=#A50040;rotation=0;" parent="1" vertex="1">
          <mxGeometry x="1540" y="-30" width="120" height="60" as="geometry" />
        </mxCell>
        <mxCell id="jC8zS6o9foFw1oIYdHK3-298" value="" style="endArrow=none;html=1;rounded=0;exitX=0.25;exitY=1;exitDx=0;exitDy=0;entryX=0.5;entryY=0;entryDx=0;entryDy=0;" parent="1" source="jC8zS6o9foFw1oIYdHK3-175" target="jC8zS6o9foFw1oIYdHK3-299" edge="1">
          <mxGeometry relative="1" as="geometry">
            <mxPoint x="90" y="610" as="sourcePoint" />
            <mxPoint x="250" y="610" as="targetPoint" />
          </mxGeometry>
        </mxCell>
        <mxCell id="jC8zS6o9foFw1oIYdHK3-299" value="&lt;u&gt;teamID&lt;/u&gt;" style="ellipse;whiteSpace=wrap;html=1;align=center;fillColor=#1ba1e2;fontColor=#ffffff;strokeColor=#006EAF;" parent="1" vertex="1">
          <mxGeometry x="1120" y="900" width="100" height="40" as="geometry" />
        </mxCell>
        <mxCell id="jC8zS6o9foFw1oIYdHK3-302" value="teamName" style="ellipse;whiteSpace=wrap;html=1;align=center;fillColor=#1ba1e2;fontColor=#ffffff;strokeColor=#006EAF;" parent="1" vertex="1">
          <mxGeometry x="1300" y="820" width="100" height="40" as="geometry" />
        </mxCell>
        <mxCell id="jC8zS6o9foFw1oIYdHK3-303" value="" style="endArrow=none;html=1;rounded=0;exitX=0;exitY=0.5;exitDx=0;exitDy=0;entryX=1;entryY=0.25;entryDx=0;entryDy=0;" parent="1" source="jC8zS6o9foFw1oIYdHK3-302" target="jC8zS6o9foFw1oIYdHK3-175" edge="1">
          <mxGeometry relative="1" as="geometry">
            <mxPoint x="320" y="620" as="sourcePoint" />
            <mxPoint x="480" y="620" as="targetPoint" />
          </mxGeometry>
        </mxCell>
        <mxCell id="jC8zS6o9foFw1oIYdHK3-305" value="headQuarters" style="ellipse;whiteSpace=wrap;html=1;align=center;fillColor=#1ba1e2;fontColor=#ffffff;strokeColor=#006EAF;" parent="1" vertex="1">
          <mxGeometry x="1200" y="860" width="100" height="40" as="geometry" />
        </mxCell>
        <mxCell id="jC8zS6o9foFw1oIYdHK3-306" value="" style="endArrow=none;html=1;rounded=0;exitX=0.75;exitY=1;exitDx=0;exitDy=0;entryX=0.5;entryY=0;entryDx=0;entryDy=0;" parent="1" source="jC8zS6o9foFw1oIYdHK3-175" target="jC8zS6o9foFw1oIYdHK3-305" edge="1">
          <mxGeometry relative="1" as="geometry">
            <mxPoint x="360" y="600" as="sourcePoint" />
            <mxPoint x="1270" y="890" as="targetPoint" />
          </mxGeometry>
        </mxCell>
        <mxCell id="jC8zS6o9foFw1oIYdHK3-273" value="" style="group;rounded=0;dashed=1;fillColor=none;strokeColor=default;container=0;" parent="1" vertex="1" connectable="0">
          <mxGeometry x="-540" y="167.5" width="370" height="562.5" as="geometry" />
        </mxCell>
        <mxCell id="jC8zS6o9foFw1oIYdHK3-155" value="Car" style="whiteSpace=wrap;html=1;align=center;container=0;fillColor=#60a917;fontColor=#ffffff;strokeColor=#2D7600;" parent="1" vertex="1">
          <mxGeometry x="-490" y="230" width="100" height="40" as="geometry" />
        </mxCell>
        <mxCell id="jC8zS6o9foFw1oIYdHK3-269" value="participates" style="shape=rhombus;perimeter=rhombusPerimeter;whiteSpace=wrap;html=1;align=center;fillColor=#d80073;fontColor=#ffffff;strokeColor=#A50040;rotation=0;" parent="1" vertex="1">
          <mxGeometry x="-480" y="410" width="120" height="60" as="geometry" />
        </mxCell>
        <mxCell id="jC8zS6o9foFw1oIYdHK3-270" value="Race" style="whiteSpace=wrap;html=1;align=center;fillColor=#60a917;fontColor=#ffffff;strokeColor=#2D7600;" parent="1" vertex="1">
          <mxGeometry x="-450" y="580" width="100" height="40" as="geometry" />
        </mxCell>
        <mxCell id="jC8zS6o9foFw1oIYdHK3-315" value="carNb" style="ellipse;whiteSpace=wrap;html=1;align=center;fillColor=#1ba1e2;fontColor=#ffffff;strokeColor=#006EAF;" parent="1" vertex="1">
          <mxGeometry x="-520" y="90" width="100" height="40" as="geometry" />
        </mxCell>
        <mxCell id="jC8zS6o9foFw1oIYdHK3-317" value="" style="endArrow=none;html=1;rounded=0;entryX=0.5;entryY=1;entryDx=0;entryDy=0;exitX=0.25;exitY=0;exitDx=0;exitDy=0;" parent="1" source="jC8zS6o9foFw1oIYdHK3-155" target="jC8zS6o9foFw1oIYdHK3-315" edge="1">
          <mxGeometry relative="1" as="geometry">
            <mxPoint x="-550" y="330" as="sourcePoint" />
            <mxPoint x="-390" y="330" as="targetPoint" />
          </mxGeometry>
        </mxCell>
        <mxCell id="jC8zS6o9foFw1oIYdHK3-318" value="carName" style="ellipse;whiteSpace=wrap;html=1;align=center;fillColor=#1ba1e2;fontColor=#ffffff;strokeColor=#006EAF;" parent="1" vertex="1">
          <mxGeometry x="-405" y="100" width="100" height="40" as="geometry" />
        </mxCell>
        <mxCell id="jC8zS6o9foFw1oIYdHK3-319" value="" style="endArrow=none;html=1;rounded=0;entryX=0.5;entryY=1;entryDx=0;entryDy=0;exitX=0.75;exitY=0;exitDx=0;exitDy=0;" parent="1" source="jC8zS6o9foFw1oIYdHK3-155" target="jC8zS6o9foFw1oIYdHK3-318" edge="1">
          <mxGeometry relative="1" as="geometry">
            <mxPoint x="-200" y="390" as="sourcePoint" />
            <mxPoint x="-215" y="360" as="targetPoint" />
          </mxGeometry>
        </mxCell>
        <mxCell id="jC8zS6o9foFw1oIYdHK3-320" value="&lt;u&gt;carID&lt;/u&gt;" style="ellipse;whiteSpace=wrap;html=1;align=center;fillColor=#1ba1e2;fontColor=#ffffff;strokeColor=#006EAF;" parent="1" vertex="1">
          <mxGeometry x="-660" y="162.5" width="100" height="40" as="geometry" />
        </mxCell>
        <mxCell id="jC8zS6o9foFw1oIYdHK3-321" value="" style="endArrow=none;html=1;rounded=0;entryX=1;entryY=0.5;entryDx=0;entryDy=0;exitX=0;exitY=0;exitDx=0;exitDy=0;" parent="1" source="jC8zS6o9foFw1oIYdHK3-155" target="jC8zS6o9foFw1oIYdHK3-320" edge="1">
          <mxGeometry relative="1" as="geometry">
            <mxPoint x="-390" y="500" as="sourcePoint" />
            <mxPoint x="-405" y="470" as="targetPoint" />
          </mxGeometry>
        </mxCell>
        <mxCell id="jC8zS6o9foFw1oIYdHK3-322" value="carVersion" style="ellipse;whiteSpace=wrap;html=1;align=center;fillColor=#fa6800;fontColor=#000000;strokeColor=#C73500;" parent="1" vertex="1">
          <mxGeometry x="-480" y="10" width="100" height="40" as="geometry" />
        </mxCell>
        <mxCell id="jC8zS6o9foFw1oIYdHK3-323" value="" style="endArrow=none;html=1;rounded=0;entryX=0.586;entryY=1.027;entryDx=0;entryDy=0;exitX=0.236;exitY=0.103;exitDx=0;exitDy=0;exitPerimeter=0;entryPerimeter=0;" parent="1" source="jC8zS6o9foFw1oIYdHK3-318" target="jC8zS6o9foFw1oIYdHK3-322" edge="1">
          <mxGeometry relative="1" as="geometry">
            <mxPoint x="-470" y="230" as="sourcePoint" />
            <mxPoint x="-445" y="540" as="targetPoint" />
          </mxGeometry>
        </mxCell>
        <mxCell id="jC8zS6o9foFw1oIYdHK3-324" value="&lt;u&gt;raceID&lt;/u&gt;" style="ellipse;whiteSpace=wrap;html=1;align=center;fillColor=#1ba1e2;fontColor=#ffffff;strokeColor=#006EAF;" parent="1" vertex="1">
          <mxGeometry x="-410" y="820" width="100" height="40" as="geometry" />
        </mxCell>
        <mxCell id="jC8zS6o9foFw1oIYdHK3-325" value="" style="endArrow=none;html=1;rounded=0;entryX=0.5;entryY=1;entryDx=0;entryDy=0;exitX=0.5;exitY=0;exitDx=0;exitDy=0;" parent="1" source="jC8zS6o9foFw1oIYdHK3-324" target="jC8zS6o9foFw1oIYdHK3-270" edge="1">
          <mxGeometry relative="1" as="geometry">
            <mxPoint x="-350" y="630" as="sourcePoint" />
            <mxPoint x="-210" y="580" as="targetPoint" />
          </mxGeometry>
        </mxCell>
        <mxCell id="jC8zS6o9foFw1oIYdHK3-326" value="raceName" style="ellipse;whiteSpace=wrap;html=1;align=center;fillColor=#1ba1e2;fontColor=#ffffff;strokeColor=#006EAF;" parent="1" vertex="1">
          <mxGeometry x="-280" y="670" width="110" height="50" as="geometry" />
        </mxCell>
        <mxCell id="jC8zS6o9foFw1oIYdHK3-327" value="" style="endArrow=none;html=1;rounded=0;exitX=0;exitY=0.5;exitDx=0;exitDy=0;" parent="1" source="jC8zS6o9foFw1oIYdHK3-326" edge="1">
          <mxGeometry relative="1" as="geometry">
            <mxPoint x="-170" y="610" as="sourcePoint" />
            <mxPoint x="-350" y="610" as="targetPoint" />
          </mxGeometry>
        </mxCell>
        <mxCell id="jC8zS6o9foFw1oIYdHK3-328" value="circuitName" style="ellipse;whiteSpace=wrap;html=1;align=center;fillColor=#1ba1e2;fontColor=#ffffff;strokeColor=#006EAF;" parent="1" vertex="1">
          <mxGeometry x="-280" y="600" width="100" height="40" as="geometry" />
        </mxCell>
        <mxCell id="jC8zS6o9foFw1oIYdHK3-329" value="" style="endArrow=none;html=1;rounded=0;entryX=1;entryY=0.5;entryDx=0;entryDy=0;exitX=0.032;exitY=0.3;exitDx=0;exitDy=0;exitPerimeter=0;" parent="1" source="jC8zS6o9foFw1oIYdHK3-328" target="jC8zS6o9foFw1oIYdHK3-270" edge="1">
          <mxGeometry relative="1" as="geometry">
            <mxPoint x="-180" y="550" as="sourcePoint" />
            <mxPoint x="-115" y="450" as="targetPoint" />
          </mxGeometry>
        </mxCell>
        <mxCell id="jC8zS6o9foFw1oIYdHK3-331" value="location" style="ellipse;whiteSpace=wrap;html=1;align=center;fillColor=#1ba1e2;fontColor=#ffffff;strokeColor=#006EAF;" parent="1" vertex="1">
          <mxGeometry x="-305" y="520" width="100" height="40" as="geometry" />
        </mxCell>
        <mxCell id="jC8zS6o9foFw1oIYdHK3-332" value="" style="endArrow=none;html=1;rounded=0;entryX=1;entryY=0;entryDx=0;entryDy=0;exitX=0;exitY=1;exitDx=0;exitDy=0;" parent="1" source="jC8zS6o9foFw1oIYdHK3-331" target="jC8zS6o9foFw1oIYdHK3-270" edge="1">
          <mxGeometry relative="1" as="geometry">
            <mxPoint x="-190" y="520" as="sourcePoint" />
            <mxPoint x="-125" y="420" as="targetPoint" />
          </mxGeometry>
        </mxCell>
        <mxCell id="jC8zS6o9foFw1oIYdHK3-333" value="date" style="ellipse;whiteSpace=wrap;html=1;align=center;fillColor=#1ba1e2;fontColor=#ffffff;strokeColor=#006EAF;" parent="1" vertex="1">
          <mxGeometry x="-610" y="760" width="100" height="40" as="geometry" />
        </mxCell>
        <mxCell id="jC8zS6o9foFw1oIYdHK3-334" value="" style="endArrow=none;html=1;rounded=0;entryX=0;entryY=1;entryDx=0;entryDy=0;exitX=1;exitY=0;exitDx=0;exitDy=0;" parent="1" source="jC8zS6o9foFw1oIYdHK3-333" target="jC8zS6o9foFw1oIYdHK3-270" edge="1">
          <mxGeometry relative="1" as="geometry">
            <mxPoint x="-420" y="630" as="sourcePoint" />
            <mxPoint x="-355" y="530" as="targetPoint" />
          </mxGeometry>
        </mxCell>
        <mxCell id="jC8zS6o9foFw1oIYdHK3-335" value="weather" style="ellipse;whiteSpace=wrap;html=1;align=center;fillColor=#1ba1e2;fontColor=#ffffff;strokeColor=#006EAF;" parent="1" vertex="1">
          <mxGeometry x="-330" y="760" width="100" height="40" as="geometry" />
        </mxCell>
        <mxCell id="jC8zS6o9foFw1oIYdHK3-336" value="" style="endArrow=none;html=1;rounded=0;entryX=1;entryY=1;entryDx=0;entryDy=0;exitX=0.5;exitY=0;exitDx=0;exitDy=0;" parent="1" source="jC8zS6o9foFw1oIYdHK3-335" target="jC8zS6o9foFw1oIYdHK3-270" edge="1">
          <mxGeometry relative="1" as="geometry">
            <mxPoint x="-190" y="650" as="sourcePoint" />
            <mxPoint x="-125" y="550" as="targetPoint" />
          </mxGeometry>
        </mxCell>
        <mxCell id="jC8zS6o9foFw1oIYdHK3-339" value="proffesion" style="ellipse;whiteSpace=wrap;html=1;align=center;fillColor=#1ba1e2;fontColor=#ffffff;strokeColor=#006EAF;" parent="1" vertex="1">
          <mxGeometry x="2210" y="-67.5" width="100" height="40" as="geometry" />
        </mxCell>
        <mxCell id="jC8zS6o9foFw1oIYdHK3-340" value="" style="endArrow=none;html=1;rounded=0;entryX=1;entryY=1;entryDx=0;entryDy=0;exitX=0;exitY=0;exitDx=0;exitDy=0;" parent="1" source="jC8zS6o9foFw1oIYdHK3-339" target="jC8zS6o9foFw1oIYdHK3-280" edge="1">
          <mxGeometry relative="1" as="geometry">
            <mxPoint x="1555" y="872.5" as="sourcePoint" />
            <mxPoint x="1620" y="772.5" as="targetPoint" />
          </mxGeometry>
        </mxCell>
        <mxCell id="jC8zS6o9foFw1oIYdHK3-344" value="date" style="ellipse;whiteSpace=wrap;html=1;align=center;fillColor=#1ba1e2;fontColor=#ffffff;strokeColor=#006EAF;" parent="1" vertex="1">
          <mxGeometry x="-1150" y="1610" width="100" height="40" as="geometry" />
        </mxCell>
        <mxCell id="jC8zS6o9foFw1oIYdHK3-363" value="&lt;u&gt;ID&lt;/u&gt;" style="ellipse;whiteSpace=wrap;html=1;align=center;fillColor=#1ba1e2;fontColor=#ffffff;strokeColor=#006EAF;" parent="1" vertex="1">
          <mxGeometry x="2030" y="1610" width="100" height="40" as="geometry" />
        </mxCell>
        <mxCell id="jC8zS6o9foFw1oIYdHK3-364" value="" style="endArrow=none;html=1;rounded=0;entryX=0.25;entryY=1;entryDx=0;entryDy=0;exitX=0.5;exitY=0;exitDx=0;exitDy=0;" parent="1" source="jC8zS6o9foFw1oIYdHK3-363" target="jC8zS6o9foFw1oIYdHK3-254" edge="1">
          <mxGeometry relative="1" as="geometry">
            <mxPoint x="290" y="1450" as="sourcePoint" />
            <mxPoint x="355" y="1350" as="targetPoint" />
          </mxGeometry>
        </mxCell>
        <mxCell id="jC8zS6o9foFw1oIYdHK3-365" value="version" style="ellipse;whiteSpace=wrap;html=1;align=center;fillColor=#1ba1e2;fontColor=#ffffff;strokeColor=#006EAF;" parent="1" vertex="1">
          <mxGeometry x="2150" y="1620" width="100" height="40" as="geometry" />
        </mxCell>
        <mxCell id="jC8zS6o9foFw1oIYdHK3-366" value="" style="endArrow=none;html=1;rounded=0;entryX=0.5;entryY=1;entryDx=0;entryDy=0;exitX=0.5;exitY=0;exitDx=0;exitDy=0;" parent="1" source="jC8zS6o9foFw1oIYdHK3-365" target="jC8zS6o9foFw1oIYdHK3-254" edge="1">
          <mxGeometry relative="1" as="geometry">
            <mxPoint x="420" y="1460" as="sourcePoint" />
            <mxPoint x="485" y="1360" as="targetPoint" />
          </mxGeometry>
        </mxCell>
        <mxCell id="jC8zS6o9foFw1oIYdHK3-367" value="type" style="ellipse;whiteSpace=wrap;html=1;align=center;fillColor=#1ba1e2;fontColor=#ffffff;strokeColor=#006EAF;" parent="1" vertex="1">
          <mxGeometry x="2250" y="1600" width="100" height="40" as="geometry" />
        </mxCell>
        <mxCell id="jC8zS6o9foFw1oIYdHK3-368" value="" style="endArrow=none;html=1;rounded=0;entryX=0.356;entryY=0.107;entryDx=0;entryDy=0;exitX=0.75;exitY=1;exitDx=0;exitDy=0;entryPerimeter=0;" parent="1" source="jC8zS6o9foFw1oIYdHK3-254" target="jC8zS6o9foFw1oIYdHK3-367" edge="1">
          <mxGeometry relative="1" as="geometry">
            <mxPoint x="520" y="1420" as="sourcePoint" />
            <mxPoint x="585" y="1320" as="targetPoint" />
          </mxGeometry>
        </mxCell>
        <mxCell id="jC8zS6o9foFw1oIYdHK3-168" value="Sponsor" style="whiteSpace=wrap;html=1;align=center;container=0;fillColor=#60a917;fontColor=#ffffff;strokeColor=#2D7600;" parent="1" vertex="1">
          <mxGeometry x="-1180" y="210" width="100" height="40" as="geometry" />
        </mxCell>
        <mxCell id="jC8zS6o9foFw1oIYdHK3-219" value="" style="endArrow=none;html=1;rounded=0;entryX=0;entryY=0;entryDx=0;entryDy=0;exitX=1;exitY=0.5;exitDx=0;exitDy=0;" parent="1" source="jC8zS6o9foFw1oIYdHK3-220" target="jC8zS6o9foFw1oIYdHK3-168" edge="1">
          <mxGeometry relative="1" as="geometry">
            <mxPoint x="-1050" y="200" as="sourcePoint" />
            <mxPoint x="-750" y="460" as="targetPoint" />
          </mxGeometry>
        </mxCell>
        <mxCell id="jC8zS6o9foFw1oIYdHK3-220" value="&lt;u&gt;Sponsor_ID&lt;/u&gt;" style="ellipse;whiteSpace=wrap;html=1;align=center;fillColor=#1ba1e2;fontColor=#ffffff;strokeColor=#006EAF;" parent="1" vertex="1">
          <mxGeometry x="-1330" y="180" width="100" height="40" as="geometry" />
        </mxCell>
        <mxCell id="jC8zS6o9foFw1oIYdHK3-221" value="" style="endArrow=none;html=1;rounded=0;exitX=0.25;exitY=0;exitDx=0;exitDy=0;entryX=0.5;entryY=1;entryDx=0;entryDy=0;" parent="1" source="jC8zS6o9foFw1oIYdHK3-168" target="jC8zS6o9foFw1oIYdHK3-222" edge="1">
          <mxGeometry relative="1" as="geometry">
            <mxPoint x="-910" y="340" as="sourcePoint" />
            <mxPoint x="-1090" y="350" as="targetPoint" />
          </mxGeometry>
        </mxCell>
        <mxCell id="jC8zS6o9foFw1oIYdHK3-222" value="sponsorName" style="ellipse;whiteSpace=wrap;html=1;align=center;fillColor=#1ba1e2;fontColor=#ffffff;strokeColor=#006EAF;" parent="1" vertex="1">
          <mxGeometry x="-1230" y="127.5" width="100" height="40" as="geometry" />
        </mxCell>
        <mxCell id="jC8zS6o9foFw1oIYdHK3-225" value="" style="endArrow=none;html=1;rounded=0;exitX=0.75;exitY=0;exitDx=0;exitDy=0;" parent="1" source="jC8zS6o9foFw1oIYdHK3-168" target="jC8zS6o9foFw1oIYdHK3-224" edge="1">
          <mxGeometry relative="1" as="geometry">
            <mxPoint x="-1080" y="210" as="sourcePoint" />
            <mxPoint x="-860" y="230" as="targetPoint" />
          </mxGeometry>
        </mxCell>
        <mxCell id="jC8zS6o9foFw1oIYdHK3-224" value="contract_Start" style="ellipse;whiteSpace=wrap;html=1;align=center;fillColor=#1ba1e2;fontColor=#ffffff;strokeColor=#006EAF;" parent="1" vertex="1">
          <mxGeometry x="-1110" y="140" width="100" height="40" as="geometry" />
        </mxCell>
        <mxCell id="jC8zS6o9foFw1oIYdHK3-226" value="" style="endArrow=none;html=1;rounded=0;exitX=0.36;exitY=0.985;exitDx=0;exitDy=0;entryX=0.5;entryY=1;entryDx=0;entryDy=0;exitPerimeter=0;" parent="1" source="jC8zS6o9foFw1oIYdHK3-168" target="jC8zS6o9foFw1oIYdHK3-227" edge="1">
          <mxGeometry relative="1" as="geometry">
            <mxPoint x="-910" y="340" as="sourcePoint" />
            <mxPoint x="-880" y="240" as="targetPoint" />
          </mxGeometry>
        </mxCell>
        <mxCell id="jC8zS6o9foFw1oIYdHK3-227" value="contract_End" style="ellipse;whiteSpace=wrap;html=1;align=center;fillColor=#1ba1e2;fontColor=#ffffff;strokeColor=#006EAF;" parent="1" vertex="1">
          <mxGeometry x="-1190" y="280" width="100" height="40" as="geometry" />
        </mxCell>
        <mxCell id="jC8zS6o9foFw1oIYdHK3-228" value="" style="endArrow=none;html=1;rounded=0;exitX=0;exitY=1;exitDx=0;exitDy=0;entryX=1;entryY=0;entryDx=0;entryDy=0;" parent="1" source="jC8zS6o9foFw1oIYdHK3-168" target="jC8zS6o9foFw1oIYdHK3-229" edge="1">
          <mxGeometry relative="1" as="geometry">
            <mxPoint x="-850" y="460" as="sourcePoint" />
            <mxPoint x="-840" y="340" as="targetPoint" />
          </mxGeometry>
        </mxCell>
        <mxCell id="jC8zS6o9foFw1oIYdHK3-229" value="investmentAmount" style="ellipse;whiteSpace=wrap;html=1;align=center;fillColor=#1ba1e2;fontColor=#ffffff;strokeColor=#006EAF;" parent="1" vertex="1">
          <mxGeometry x="-1320" y="240" width="110" height="50" as="geometry" />
        </mxCell>
        <mxCell id="jC8zS6o9foFw1oIYdHK3-247" value="Accident" style="shape=ext;margin=3;double=1;whiteSpace=wrap;html=1;align=center;" parent="1" vertex="1">
          <mxGeometry x="-1130" y="1520" width="100" height="40" as="geometry" />
        </mxCell>
        <mxCell id="jC8zS6o9foFw1oIYdHK3-342" value="" style="endArrow=none;html=1;rounded=0;entryX=0;entryY=0.5;entryDx=0;entryDy=0;exitX=1;exitY=0.5;exitDx=0;exitDy=0;" parent="1" source="jC8zS6o9foFw1oIYdHK3-343" target="jC8zS6o9foFw1oIYdHK3-247" edge="1">
          <mxGeometry relative="1" as="geometry">
            <mxPoint x="-1150" y="1584.9999999999998" as="sourcePoint" />
            <mxPoint x="-1165" y="1505" as="targetPoint" />
          </mxGeometry>
        </mxCell>
        <mxCell id="jC8zS6o9foFw1oIYdHK3-343" value="&lt;span style=&quot;border-bottom: 1px dotted&quot;&gt;ID&lt;/span&gt;" style="ellipse;whiteSpace=wrap;html=1;align=center;fillColor=#1ba1e2;fontColor=#ffffff;strokeColor=#006EAF;" parent="1" vertex="1">
          <mxGeometry x="-1280" y="1540" width="100" height="40" as="geometry" />
        </mxCell>
        <mxCell id="jC8zS6o9foFw1oIYdHK3-345" value="" style="endArrow=none;html=1;rounded=0;entryX=0.5;entryY=1;entryDx=0;entryDy=0;exitX=0.5;exitY=0;exitDx=0;exitDy=0;" parent="1" source="jC8zS6o9foFw1oIYdHK3-344" target="jC8zS6o9foFw1oIYdHK3-247" edge="1">
          <mxGeometry relative="1" as="geometry">
            <mxPoint x="-1100" y="1645" as="sourcePoint" />
            <mxPoint x="-1035" y="1545" as="targetPoint" />
          </mxGeometry>
        </mxCell>
        <mxCell id="jC8zS6o9foFw1oIYdHK3-261" value="Standings" style="whiteSpace=wrap;html=1;align=center;container=0;fillColor=#60a917;fontColor=#ffffff;strokeColor=#2D7600;" parent="1" vertex="1">
          <mxGeometry x="720" y="1060" width="100" height="40" as="geometry" />
        </mxCell>
        <mxCell id="jC8zS6o9foFw1oIYdHK3-355" value="&lt;u&gt;teamID&lt;/u&gt;" style="ellipse;whiteSpace=wrap;html=1;align=center;container=0;fillColor=#1ba1e2;fontColor=#ffffff;strokeColor=#006EAF;" parent="1" vertex="1">
          <mxGeometry x="900" y="1060" width="100" height="40" as="geometry" />
        </mxCell>
        <mxCell id="jC8zS6o9foFw1oIYdHK3-356" value="" style="endArrow=none;html=1;rounded=0;entryX=1;entryY=0.5;entryDx=0;entryDy=0;exitX=0;exitY=0.5;exitDx=0;exitDy=0;" parent="1" source="jC8zS6o9foFw1oIYdHK3-355" target="jC8zS6o9foFw1oIYdHK3-261" edge="1">
          <mxGeometry relative="1" as="geometry">
            <mxPoint x="1242.5" y="1210" as="sourcePoint" />
            <mxPoint x="1307.5" y="1110" as="targetPoint" />
          </mxGeometry>
        </mxCell>
        <mxCell id="jC8zS6o9foFw1oIYdHK3-358" value="" style="endArrow=none;html=1;rounded=0;entryX=1;entryY=1;entryDx=0;entryDy=0;exitX=0.04;exitY=0.32;exitDx=0;exitDy=0;exitPerimeter=0;" parent="1" source="jC8zS6o9foFw1oIYdHK3-379" target="jC8zS6o9foFw1oIYdHK3-261" edge="1">
          <mxGeometry relative="1" as="geometry">
            <mxPoint x="1272.5" y="1200" as="sourcePoint" />
            <mxPoint x="1327.5" y="1120" as="targetPoint" />
          </mxGeometry>
        </mxCell>
        <mxCell id="jC8zS6o9foFw1oIYdHK3-359" value="position" style="ellipse;whiteSpace=wrap;html=1;align=center;container=0;fillColor=#1ba1e2;fontColor=#ffffff;strokeColor=#006EAF;" parent="1" vertex="1">
          <mxGeometry x="800" y="1160" width="100" height="40" as="geometry" />
        </mxCell>
        <mxCell id="jC8zS6o9foFw1oIYdHK3-360" value="" style="endArrow=none;html=1;rounded=0;entryX=0.75;entryY=1;entryDx=0;entryDy=0;exitX=0;exitY=0;exitDx=0;exitDy=0;" parent="1" source="jC8zS6o9foFw1oIYdHK3-359" target="jC8zS6o9foFw1oIYdHK3-261" edge="1">
          <mxGeometry relative="1" as="geometry">
            <mxPoint x="1202.5" y="1250" as="sourcePoint" />
            <mxPoint x="1267.5" y="1150" as="targetPoint" />
          </mxGeometry>
        </mxCell>
        <mxCell id="jC8zS6o9foFw1oIYdHK3-361" value="RaceResult" style="ellipse;whiteSpace=wrap;html=1;align=center;container=0;fillColor=#1ba1e2;fontColor=#ffffff;strokeColor=#006EAF;" parent="1" vertex="1">
          <mxGeometry x="690" y="1160" width="100" height="40" as="geometry" />
        </mxCell>
        <mxCell id="jC8zS6o9foFw1oIYdHK3-362" value="" style="endArrow=none;html=1;rounded=0;entryX=0.5;entryY=1;entryDx=0;entryDy=0;exitX=0.5;exitY=0;exitDx=0;exitDy=0;" parent="1" source="jC8zS6o9foFw1oIYdHK3-361" target="jC8zS6o9foFw1oIYdHK3-261" edge="1">
          <mxGeometry relative="1" as="geometry">
            <mxPoint x="1092.5" y="1250" as="sourcePoint" />
            <mxPoint x="1157.5" y="1150" as="targetPoint" />
          </mxGeometry>
        </mxCell>
        <mxCell id="jC8zS6o9foFw1oIYdHK3-379" value="points" style="ellipse;whiteSpace=wrap;html=1;align=center;dashed=1;container=0;" parent="1" vertex="1">
          <mxGeometry x="860" y="1110" width="100" height="40" as="geometry" />
        </mxCell>
        <mxCell id="jC8zS6o9foFw1oIYdHK3-567" value="prevResults" style="ellipse;shape=doubleEllipse;margin=3;whiteSpace=wrap;html=1;align=center;container=0;" parent="1" vertex="1">
          <mxGeometry x="580" y="1150" width="100" height="40" as="geometry" />
        </mxCell>
        <mxCell id="jC8zS6o9foFw1oIYdHK3-568" value="" style="endArrow=none;html=1;rounded=0;entryX=0;entryY=1;entryDx=0;entryDy=0;exitX=1;exitY=0;exitDx=0;exitDy=0;" parent="1" source="jC8zS6o9foFw1oIYdHK3-567" target="jC8zS6o9foFw1oIYdHK3-261" edge="1">
          <mxGeometry relative="1" as="geometry">
            <mxPoint x="1112.5" y="1290" as="sourcePoint" />
            <mxPoint x="1272.5" y="1290" as="targetPoint" />
          </mxGeometry>
        </mxCell>
        <mxCell id="jC8zS6o9foFw1oIYdHK3-158" value="Driver" style="whiteSpace=wrap;html=1;align=center;container=0;fillColor=#60a917;fontColor=#ffffff;strokeColor=#2D7600;" parent="1" vertex="1">
          <mxGeometry x="720" y="390" width="100" height="40" as="geometry" />
        </mxCell>
        <mxCell id="jC8zS6o9foFw1oIYdHK3-309" value="contract_End" style="ellipse;whiteSpace=wrap;html=1;align=center;fillColor=#1ba1e2;fontColor=#ffffff;strokeColor=#006EAF;" parent="1" vertex="1">
          <mxGeometry x="840" y="310" width="100" height="40" as="geometry" />
        </mxCell>
        <mxCell id="jC8zS6o9foFw1oIYdHK3-310" value="" style="endArrow=none;html=1;rounded=0;entryX=1;entryY=0;entryDx=0;entryDy=0;" parent="1" source="jC8zS6o9foFw1oIYdHK3-309" target="jC8zS6o9foFw1oIYdHK3-158" edge="1">
          <mxGeometry relative="1" as="geometry">
            <mxPoint x="280" y="345" as="sourcePoint" />
            <mxPoint x="280" y="275" as="targetPoint" />
          </mxGeometry>
        </mxCell>
        <mxCell id="jC8zS6o9foFw1oIYdHK3-311" value="position" style="ellipse;whiteSpace=wrap;html=1;align=center;fillColor=#1ba1e2;fontColor=#ffffff;strokeColor=#006EAF;" parent="1" vertex="1">
          <mxGeometry x="930" y="440" width="100" height="40" as="geometry" />
        </mxCell>
        <mxCell id="jC8zS6o9foFw1oIYdHK3-312" value="" style="endArrow=none;html=1;rounded=0;exitX=1;exitY=1;exitDx=0;exitDy=0;entryX=0;entryY=0;entryDx=0;entryDy=0;" parent="1" source="jC8zS6o9foFw1oIYdHK3-158" target="jC8zS6o9foFw1oIYdHK3-311" edge="1">
          <mxGeometry relative="1" as="geometry">
            <mxPoint x="310" y="505" as="sourcePoint" />
            <mxPoint x="310" y="435" as="targetPoint" />
          </mxGeometry>
        </mxCell>
        <mxCell id="jC8zS6o9foFw1oIYdHK3-313" value="contractStart" style="ellipse;whiteSpace=wrap;html=1;align=center;fillColor=#1ba1e2;fontColor=#ffffff;strokeColor=#006EAF;" parent="1" vertex="1">
          <mxGeometry x="880" y="350" width="100" height="40" as="geometry" />
        </mxCell>
        <mxCell id="jC8zS6o9foFw1oIYdHK3-314" value="" style="endArrow=none;html=1;rounded=0;exitX=0;exitY=1;exitDx=0;exitDy=0;entryX=1;entryY=0.25;entryDx=0;entryDy=0;" parent="1" source="jC8zS6o9foFw1oIYdHK3-313" target="jC8zS6o9foFw1oIYdHK3-158" edge="1">
          <mxGeometry relative="1" as="geometry">
            <mxPoint x="405" y="385" as="sourcePoint" />
            <mxPoint x="405" y="315" as="targetPoint" />
          </mxGeometry>
        </mxCell>
        <mxCell id="jC8zS6o9foFw1oIYdHK3-176" value="manages" style="shape=rhombus;perimeter=rhombusPerimeter;whiteSpace=wrap;html=1;align=center;container=0;fillColor=#d80073;fontColor=#ffffff;strokeColor=#A50040;rotation=30;" parent="1" vertex="1">
          <mxGeometry x="490" y="490" width="120" height="60" as="geometry" />
        </mxCell>
        <mxCell id="jC8zS6o9foFw1oIYdHK3-171" value="Team_Principle" style="whiteSpace=wrap;html=1;align=center;container=0;fillColor=#60a917;fontColor=#ffffff;strokeColor=#2D7600;" parent="1" vertex="1">
          <mxGeometry x="220" y="370" width="100" height="40" as="geometry" />
        </mxCell>
        <mxCell id="jC8zS6o9foFw1oIYdHK3-241" value="contract_Start" style="ellipse;whiteSpace=wrap;html=1;align=center;fillColor=#1ba1e2;fontColor=#ffffff;strokeColor=#006EAF;" parent="1" vertex="1">
          <mxGeometry x="320" y="470" width="100" height="40" as="geometry" />
        </mxCell>
        <mxCell id="jC8zS6o9foFw1oIYdHK3-242" value="" style="endArrow=none;html=1;rounded=0;entryX=0.5;entryY=0;entryDx=0;entryDy=0;exitX=0.75;exitY=1;exitDx=0;exitDy=0;" parent="1" source="jC8zS6o9foFw1oIYdHK3-171" target="jC8zS6o9foFw1oIYdHK3-241" edge="1">
          <mxGeometry relative="1" as="geometry">
            <mxPoint x="300" y="500" as="sourcePoint" />
            <mxPoint x="460" y="500" as="targetPoint" />
          </mxGeometry>
        </mxCell>
        <mxCell id="jC8zS6o9foFw1oIYdHK3-243" value="contract_end" style="ellipse;whiteSpace=wrap;html=1;align=center;fillColor=#1ba1e2;fontColor=#ffffff;strokeColor=#006EAF;" parent="1" vertex="1">
          <mxGeometry x="100" y="470" width="100" height="40" as="geometry" />
        </mxCell>
        <mxCell id="jC8zS6o9foFw1oIYdHK3-244" value="" style="endArrow=none;html=1;rounded=0;entryX=0.5;entryY=0;entryDx=0;entryDy=0;exitX=0.25;exitY=1;exitDx=0;exitDy=0;" parent="1" source="jC8zS6o9foFw1oIYdHK3-171" target="jC8zS6o9foFw1oIYdHK3-243" edge="1">
          <mxGeometry relative="1" as="geometry">
            <mxPoint x="300" y="500" as="sourcePoint" />
            <mxPoint x="460" y="500" as="targetPoint" />
          </mxGeometry>
        </mxCell>
        <mxCell id="jC8zS6o9foFw1oIYdHK3-287" value="Department" style="whiteSpace=wrap;html=1;align=center;fillColor=#60a917;fontColor=#ffffff;strokeColor=#2D7600;" parent="1" vertex="1">
          <mxGeometry x="1550" y="460" width="100" height="40" as="geometry" />
        </mxCell>
        <mxCell id="jC8zS6o9foFw1oIYdHK3-347" value="&lt;u&gt;Building_number&lt;/u&gt;" style="ellipse;whiteSpace=wrap;html=1;align=center;fillColor=#1ba1e2;fontColor=#ffffff;strokeColor=#006EAF;" parent="1" vertex="1">
          <mxGeometry x="1575" y="610" width="100" height="40" as="geometry" />
        </mxCell>
        <mxCell id="jC8zS6o9foFw1oIYdHK3-348" value="" style="endArrow=none;html=1;rounded=0;exitX=0.5;exitY=0;exitDx=0;exitDy=0;entryX=0.5;entryY=1;entryDx=0;entryDy=0;" parent="1" source="jC8zS6o9foFw1oIYdHK3-347" target="jC8zS6o9foFw1oIYdHK3-287" edge="1">
          <mxGeometry relative="1" as="geometry">
            <mxPoint x="136.25" y="850" as="sourcePoint" />
            <mxPoint x="1480" y="670" as="targetPoint" />
          </mxGeometry>
        </mxCell>
        <mxCell id="jC8zS6o9foFw1oIYdHK3-349" value="type" style="ellipse;whiteSpace=wrap;html=1;align=center;container=0;fillColor=#1ba1e2;fontColor=#ffffff;strokeColor=#006EAF;" parent="1" vertex="1">
          <mxGeometry x="1470" y="570" width="100" height="40" as="geometry" />
        </mxCell>
        <mxCell id="jC8zS6o9foFw1oIYdHK3-350" value="" style="endArrow=none;html=1;rounded=0;entryX=0.5;entryY=0;entryDx=0;entryDy=0;exitX=0.25;exitY=1;exitDx=0;exitDy=0;" parent="1" source="jC8zS6o9foFw1oIYdHK3-287" target="jC8zS6o9foFw1oIYdHK3-349" edge="1">
          <mxGeometry relative="1" as="geometry">
            <mxPoint x="116.25" y="800" as="sourcePoint" />
            <mxPoint x="181.25" y="700" as="targetPoint" />
          </mxGeometry>
        </mxCell>
        <mxCell id="jC8zS6o9foFw1oIYdHK3-351" value="budget" style="ellipse;whiteSpace=wrap;html=1;align=center;fillColor=#1ba1e2;fontColor=#ffffff;strokeColor=#006EAF;" parent="1" vertex="1">
          <mxGeometry x="1650" y="560" width="100" height="40" as="geometry" />
        </mxCell>
        <mxCell id="jC8zS6o9foFw1oIYdHK3-352" value="" style="endArrow=none;html=1;rounded=0;entryX=0.75;entryY=1;entryDx=0;entryDy=0;exitX=0;exitY=0;exitDx=0;exitDy=0;" parent="1" source="jC8zS6o9foFw1oIYdHK3-351" target="jC8zS6o9foFw1oIYdHK3-287" edge="1">
          <mxGeometry relative="1" as="geometry">
            <mxPoint x="166.25" y="920" as="sourcePoint" />
            <mxPoint x="231.25" y="820" as="targetPoint" />
          </mxGeometry>
        </mxCell>
        <mxCell id="jC8zS6o9foFw1oIYdHK3-353" value="nbOfEmployees" style="ellipse;whiteSpace=wrap;html=1;align=center;fillColor=#1ba1e2;fontColor=#ffffff;strokeColor=#006EAF;rotation=0;" parent="1" vertex="1">
          <mxGeometry x="1690" y="510" width="100" height="40" as="geometry" />
        </mxCell>
        <mxCell id="jC8zS6o9foFw1oIYdHK3-354" value="" style="endArrow=none;html=1;rounded=0;entryX=0.75;entryY=1;entryDx=0;entryDy=0;exitX=0.01;exitY=0.256;exitDx=0;exitDy=0;exitPerimeter=0;" parent="1" source="jC8zS6o9foFw1oIYdHK3-353" target="jC8zS6o9foFw1oIYdHK3-287" edge="1">
          <mxGeometry relative="1" as="geometry">
            <mxPoint x="296.25" y="940" as="sourcePoint" />
            <mxPoint x="361.25" y="840" as="targetPoint" />
          </mxGeometry>
        </mxCell>
        <mxCell id="jC8zS6o9foFw1oIYdHK3-152" value="Mechanic" style="whiteSpace=wrap;html=1;align=center;container=0;fillColor=#60a917;fontColor=#ffffff;strokeColor=#2D7600;" parent="1" vertex="1">
          <mxGeometry x="40" y="80" width="100" height="40" as="geometry" />
        </mxCell>
        <mxCell id="jC8zS6o9foFw1oIYdHK3-214" value="" style="endArrow=none;html=1;rounded=0;entryX=0.25;entryY=0;entryDx=0;entryDy=0;exitX=0.5;exitY=1;exitDx=0;exitDy=0;" parent="1" source="jC8zS6o9foFw1oIYdHK3-216" target="jC8zS6o9foFw1oIYdHK3-152" edge="1">
          <mxGeometry relative="1" as="geometry">
            <mxPoint x="-70" y="70" as="sourcePoint" />
            <mxPoint x="120" y="260" as="targetPoint" />
          </mxGeometry>
        </mxCell>
        <mxCell id="jC8zS6o9foFw1oIYdHK3-216" value="level" style="ellipse;whiteSpace=wrap;html=1;align=center;fillColor=#1ba1e2;fontColor=#ffffff;strokeColor=#006EAF;" parent="1" vertex="1">
          <mxGeometry x="-30" width="100" height="40" as="geometry" />
        </mxCell>
        <mxCell id="oixMLdh2jTHG1NvuXkPw-1" value="" style="shape=link;html=1;rounded=0;entryX=0.5;entryY=1;entryDx=0;entryDy=0;exitX=1;exitY=0.5;exitDx=0;exitDy=0;" parent="1" source="jC8zS6o9foFw1oIYdHK3-150" target="jC8zS6o9foFw1oIYdHK3-1" edge="1">
          <mxGeometry relative="1" as="geometry">
            <mxPoint x="500" y="210" as="sourcePoint" />
            <mxPoint x="660" y="210" as="targetPoint" />
          </mxGeometry>
        </mxCell>
        <mxCell id="oixMLdh2jTHG1NvuXkPw-3" value="{disjoint}" style="text;html=1;strokeColor=none;fillColor=none;align=center;verticalAlign=middle;whiteSpace=wrap;rounded=0;" parent="1" vertex="1">
          <mxGeometry x="520" y="-270" width="60" height="30" as="geometry" />
        </mxCell>
        <mxCell id="oixMLdh2jTHG1NvuXkPw-4" value="" style="shape=link;html=1;rounded=0;entryX=0.5;entryY=0;entryDx=0;entryDy=0;" parent="1" source="jC8zS6o9foFw1oIYdHK3-177" target="jC8zS6o9foFw1oIYdHK3-175" edge="1">
          <mxGeometry relative="1" as="geometry">
            <mxPoint x="150" y="570" as="sourcePoint" />
            <mxPoint x="310" y="570" as="targetPoint" />
          </mxGeometry>
        </mxCell>
        <mxCell id="oixMLdh2jTHG1NvuXkPw-6" value="" style="shape=flexArrow;endArrow=classic;html=1;rounded=0;exitX=0.75;exitY=1;exitDx=0;exitDy=0;entryX=0;entryY=0;entryDx=0;entryDy=0;" parent="1" source="jC8zS6o9foFw1oIYdHK3-158" target="jC8zS6o9foFw1oIYdHK3-177" edge="1">
          <mxGeometry width="50" height="50" relative="1" as="geometry">
            <mxPoint x="240" y="430" as="sourcePoint" />
            <mxPoint x="290" y="380" as="targetPoint" />
          </mxGeometry>
        </mxCell>
        <mxCell id="oixMLdh2jTHG1NvuXkPw-7" value="" style="shape=flexArrow;endArrow=classic;html=1;rounded=0;entryX=0;entryY=0.5;entryDx=0;entryDy=0;exitX=1;exitY=0.5;exitDx=0;exitDy=0;" parent="1" source="jC8zS6o9foFw1oIYdHK3-171" target="jC8zS6o9foFw1oIYdHK3-176" edge="1">
          <mxGeometry width="50" height="50" relative="1" as="geometry">
            <mxPoint x="230" y="610" as="sourcePoint" />
            <mxPoint x="280" y="560" as="targetPoint" />
          </mxGeometry>
        </mxCell>
        <mxCell id="oixMLdh2jTHG1NvuXkPw-8" value="" style="shape=flexArrow;endArrow=classic;html=1;rounded=0;exitX=0;exitY=0.25;exitDx=0;exitDy=0;entryX=1;entryY=0.5;entryDx=0;entryDy=0;" parent="1" source="jC8zS6o9foFw1oIYdHK3-175" target="jC8zS6o9foFw1oIYdHK3-176" edge="1">
          <mxGeometry width="50" height="50" relative="1" as="geometry">
            <mxPoint x="330" y="660" as="sourcePoint" />
            <mxPoint x="380" y="610" as="targetPoint" />
          </mxGeometry>
        </mxCell>
        <mxCell id="oixMLdh2jTHG1NvuXkPw-9" value="" style="shape=link;html=1;rounded=0;exitX=0.5;exitY=0;exitDx=0;exitDy=0;entryX=0.5;entryY=1;entryDx=0;entryDy=0;" parent="1" source="jC8zS6o9foFw1oIYdHK3-158" target="jC8zS6o9foFw1oIYdHK3-163" edge="1">
          <mxGeometry relative="1" as="geometry">
            <mxPoint x="380" y="360" as="sourcePoint" />
            <mxPoint x="540" y="360" as="targetPoint" />
          </mxGeometry>
        </mxCell>
        <mxCell id="oixMLdh2jTHG1NvuXkPw-11" value="" style="shape=flexArrow;endArrow=classic;html=1;rounded=0;entryX=0.5;entryY=0;entryDx=0;entryDy=0;exitX=0.5;exitY=1;exitDx=0;exitDy=0;" parent="1" source="jC8zS6o9foFw1oIYdHK3-164" target="jC8zS6o9foFw1oIYdHK3-163" edge="1">
          <mxGeometry width="50" height="50" relative="1" as="geometry">
            <mxPoint x="640" y="410" as="sourcePoint" />
            <mxPoint x="690" y="360" as="targetPoint" />
          </mxGeometry>
        </mxCell>
        <mxCell id="oixMLdh2jTHG1NvuXkPw-13" value="health" style="ellipse;whiteSpace=wrap;html=1;align=center;fillColor=#1ba1e2;fontColor=#ffffff;strokeColor=#006EAF;" parent="1" vertex="1">
          <mxGeometry x="2270" y="1530" width="100" height="40" as="geometry" />
        </mxCell>
        <mxCell id="oixMLdh2jTHG1NvuXkPw-14" value="" style="endArrow=none;html=1;rounded=0;exitX=1;exitY=0.75;exitDx=0;exitDy=0;entryX=0;entryY=0.5;entryDx=0;entryDy=0;" parent="1" source="jC8zS6o9foFw1oIYdHK3-254" target="oixMLdh2jTHG1NvuXkPw-13" edge="1">
          <mxGeometry width="50" height="50" relative="1" as="geometry">
            <mxPoint x="480" y="1320" as="sourcePoint" />
            <mxPoint x="530" y="1270" as="targetPoint" />
          </mxGeometry>
        </mxCell>
        <mxCell id="oixMLdh2jTHG1NvuXkPw-15" value="" style="shape=link;html=1;rounded=0;entryX=0.5;entryY=1;entryDx=0;entryDy=0;exitX=0.5;exitY=0;exitDx=0;exitDy=0;" parent="1" source="jC8zS6o9foFw1oIYdHK3-287" target="jC8zS6o9foFw1oIYdHK3-295" edge="1">
          <mxGeometry relative="1" as="geometry">
            <mxPoint x="270" y="830" as="sourcePoint" />
            <mxPoint x="430" y="830" as="targetPoint" />
          </mxGeometry>
        </mxCell>
        <mxCell id="oixMLdh2jTHG1NvuXkPw-17" value="" style="shape=link;html=1;rounded=0;exitX=0.5;exitY=0;exitDx=0;exitDy=0;entryX=0;entryY=1;entryDx=0;entryDy=0;" parent="1" source="jC8zS6o9foFw1oIYdHK3-295" target="jC8zS6o9foFw1oIYdHK3-280" edge="1">
          <mxGeometry width="100" relative="1" as="geometry">
            <mxPoint x="470" y="710" as="sourcePoint" />
            <mxPoint x="570" y="710" as="targetPoint" />
          </mxGeometry>
        </mxCell>
        <mxCell id="oixMLdh2jTHG1NvuXkPw-18" value="" style="shape=flexArrow;endArrow=classic;html=1;rounded=0;entryX=0.5;entryY=1;entryDx=0;entryDy=0;" parent="1" source="jC8zS6o9foFw1oIYdHK3-247" target="jC8zS6o9foFw1oIYdHK3-248" edge="1">
          <mxGeometry width="50" height="50" relative="1" as="geometry">
            <mxPoint x="-650" y="920" as="sourcePoint" />
            <mxPoint x="-600" y="870" as="targetPoint" />
          </mxGeometry>
        </mxCell>
        <mxCell id="oixMLdh2jTHG1NvuXkPw-21" value="" style="shape=link;html=1;rounded=0;exitX=0;exitY=0.5;exitDx=0;exitDy=0;entryX=1;entryY=1;entryDx=0;entryDy=0;" parent="1" source="jC8zS6o9foFw1oIYdHK3-169" target="jC8zS6o9foFw1oIYdHK3-168" edge="1">
          <mxGeometry width="100" relative="1" as="geometry">
            <mxPoint x="-670" y="280" as="sourcePoint" />
            <mxPoint x="-570" y="280" as="targetPoint" />
          </mxGeometry>
        </mxCell>
        <mxCell id="oixMLdh2jTHG1NvuXkPw-22" value="" style="shape=link;html=1;rounded=0;exitX=1;exitY=0.5;exitDx=0;exitDy=0;entryX=0;entryY=0.75;entryDx=0;entryDy=0;" parent="1" source="jC8zS6o9foFw1oIYdHK3-169" target="jC8zS6o9foFw1oIYdHK3-155" edge="1">
          <mxGeometry width="100" relative="1" as="geometry">
            <mxPoint x="-600" y="360" as="sourcePoint" />
            <mxPoint x="-480" y="250" as="targetPoint" />
          </mxGeometry>
        </mxCell>
        <mxCell id="oixMLdh2jTHG1NvuXkPw-23" value="" style="shape=link;html=1;rounded=0;exitX=0.5;exitY=1;exitDx=0;exitDy=0;entryX=0.75;entryY=0;entryDx=0;entryDy=0;" parent="1" source="jC8zS6o9foFw1oIYdHK3-285" target="jC8zS6o9foFw1oIYdHK3-175" edge="1">
          <mxGeometry width="100" relative="1" as="geometry">
            <mxPoint x="300" y="730" as="sourcePoint" />
            <mxPoint x="400" y="730" as="targetPoint" />
          </mxGeometry>
        </mxCell>
        <mxCell id="oixMLdh2jTHG1NvuXkPw-24" value="" style="shape=flexArrow;endArrow=classic;html=1;rounded=0;exitX=0;exitY=0.5;exitDx=0;exitDy=0;entryX=1;entryY=0.5;entryDx=0;entryDy=0;" parent="1" source="jC8zS6o9foFw1oIYdHK3-287" target="jC8zS6o9foFw1oIYdHK3-285" edge="1">
          <mxGeometry width="50" height="50" relative="1" as="geometry">
            <mxPoint x="190" y="860" as="sourcePoint" />
            <mxPoint x="920" y="670" as="targetPoint" />
          </mxGeometry>
        </mxCell>
        <mxCell id="oixMLdh2jTHG1NvuXkPw-25" value="" style="shape=link;html=1;rounded=0;exitX=1;exitY=0.5;exitDx=0;exitDy=0;entryX=0;entryY=0.5;entryDx=0;entryDy=0;" parent="1" source="jC8zS6o9foFw1oIYdHK3-153" target="jC8zS6o9foFw1oIYdHK3-152" edge="1">
          <mxGeometry width="100" relative="1" as="geometry">
            <mxPoint x="-140" y="130" as="sourcePoint" />
            <mxPoint x="-40" y="130" as="targetPoint" />
          </mxGeometry>
        </mxCell>
        <mxCell id="oixMLdh2jTHG1NvuXkPw-26" value="" style="shape=link;html=1;rounded=0;entryX=0;entryY=0.5;entryDx=0;entryDy=0;exitX=1;exitY=0;exitDx=0;exitDy=0;" parent="1" source="jC8zS6o9foFw1oIYdHK3-155" target="jC8zS6o9foFw1oIYdHK3-153" edge="1">
          <mxGeometry width="100" relative="1" as="geometry">
            <mxPoint x="-370" y="240" as="sourcePoint" />
            <mxPoint x="-270" y="240" as="targetPoint" />
          </mxGeometry>
        </mxCell>
        <mxCell id="oixMLdh2jTHG1NvuXkPw-28" value="" style="shape=link;html=1;rounded=0;exitX=1;exitY=0.5;exitDx=0;exitDy=0;entryX=0;entryY=0.5;entryDx=0;entryDy=0;" parent="1" source="jC8zS6o9foFw1oIYdHK3-155" target="jC8zS6o9foFw1oIYdHK3-159" edge="1">
          <mxGeometry width="100" relative="1" as="geometry">
            <mxPoint x="-200" y="370" as="sourcePoint" />
            <mxPoint x="-100" y="370" as="targetPoint" />
          </mxGeometry>
        </mxCell>
        <mxCell id="oixMLdh2jTHG1NvuXkPw-30" value="" style="endArrow=classic;html=1;rounded=0;entryX=1;entryY=0.5;entryDx=0;entryDy=0;exitX=0;exitY=0.5;exitDx=0;exitDy=0;" parent="1" source="jC8zS6o9foFw1oIYdHK3-158" target="jC8zS6o9foFw1oIYdHK3-159" edge="1">
          <mxGeometry width="50" height="50" relative="1" as="geometry">
            <mxPoint x="90" y="370" as="sourcePoint" />
            <mxPoint x="140" y="320" as="targetPoint" />
          </mxGeometry>
        </mxCell>
        <mxCell id="oixMLdh2jTHG1NvuXkPw-31" value="" style="shape=flexArrow;endArrow=classic;html=1;rounded=0;exitX=0;exitY=1;exitDx=0;exitDy=0;entryX=1;entryY=0.5;entryDx=0;entryDy=0;" parent="1" source="jC8zS6o9foFw1oIYdHK3-175" target="jC8zS6o9foFw1oIYdHK3-266" edge="1">
          <mxGeometry width="50" height="50" relative="1" as="geometry">
            <mxPoint x="140" y="770" as="sourcePoint" />
            <mxPoint x="840" y="880" as="targetPoint" />
          </mxGeometry>
        </mxCell>
        <mxCell id="oixMLdh2jTHG1NvuXkPw-32" value="" style="shape=link;html=1;rounded=0;exitX=1;exitY=0.5;exitDx=0;exitDy=0;entryX=0;entryY=0;entryDx=0;entryDy=0;" parent="1" source="jC8zS6o9foFw1oIYdHK3-275" target="jC8zS6o9foFw1oIYdHK3-261" edge="1">
          <mxGeometry width="100" relative="1" as="geometry">
            <mxPoint x="-390" y="820" as="sourcePoint" />
            <mxPoint x="-290" y="820" as="targetPoint" />
            <Array as="points">
              <mxPoint x="170" y="1020" />
            </Array>
          </mxGeometry>
        </mxCell>
        <mxCell id="oixMLdh2jTHG1NvuXkPw-33" value="" style="endArrow=classic;html=1;rounded=0;exitX=0.5;exitY=1;exitDx=0;exitDy=0;entryX=0.5;entryY=0;entryDx=0;entryDy=0;" parent="1" source="jC8zS6o9foFw1oIYdHK3-158" target="jC8zS6o9foFw1oIYdHK3-262" edge="1">
          <mxGeometry width="50" height="50" relative="1" as="geometry">
            <mxPoint x="90" y="420" as="sourcePoint" />
            <mxPoint x="1130" y="790" as="targetPoint" />
          </mxGeometry>
        </mxCell>
        <mxCell id="oixMLdh2jTHG1NvuXkPw-34" value="" style="endArrow=none;html=1;rounded=0;exitX=0.5;exitY=0;exitDx=0;exitDy=0;entryX=0.25;entryY=1;entryDx=0;entryDy=0;" parent="1" source="jC8zS6o9foFw1oIYdHK3-275" target="jC8zS6o9foFw1oIYdHK3-270" edge="1">
          <mxGeometry width="50" height="50" relative="1" as="geometry">
            <mxPoint x="-390" y="710" as="sourcePoint" />
            <mxPoint x="-340" y="660" as="targetPoint" />
          </mxGeometry>
        </mxCell>
        <mxCell id="oixMLdh2jTHG1NvuXkPw-37" value="" style="shape=link;html=1;rounded=0;entryX=0.5;entryY=0;entryDx=0;entryDy=0;exitX=0.5;exitY=1;exitDx=0;exitDy=0;" parent="1" source="jC8zS6o9foFw1oIYdHK3-269" target="jC8zS6o9foFw1oIYdHK3-270" edge="1">
          <mxGeometry width="100" relative="1" as="geometry">
            <mxPoint x="-300" y="520" as="sourcePoint" />
            <mxPoint x="-250" y="520" as="targetPoint" />
          </mxGeometry>
        </mxCell>
        <mxCell id="oixMLdh2jTHG1NvuXkPw-40" value="Country" style="ellipse;whiteSpace=wrap;html=1;align=center;fillColor=#fa6800;fontColor=#000000;strokeColor=#C73500;" parent="1" vertex="1">
          <mxGeometry x="-150" y="470" width="100" height="40" as="geometry" />
        </mxCell>
        <mxCell id="oixMLdh2jTHG1NvuXkPw-41" value="City" style="ellipse;whiteSpace=wrap;html=1;align=center;fillColor=#fa6800;fontColor=#000000;strokeColor=#C73500;" parent="1" vertex="1">
          <mxGeometry x="-120" y="540" width="100" height="40" as="geometry" />
        </mxCell>
        <mxCell id="oixMLdh2jTHG1NvuXkPw-42" value="Region" style="ellipse;whiteSpace=wrap;html=1;align=center;fillColor=#fa6800;fontColor=#000000;strokeColor=#C73500;" parent="1" vertex="1">
          <mxGeometry x="-80" y="620" width="100" height="40" as="geometry" />
        </mxCell>
        <mxCell id="oixMLdh2jTHG1NvuXkPw-43" value="" style="endArrow=none;html=1;rounded=0;exitX=0.5;exitY=0;exitDx=0;exitDy=0;entryX=0;entryY=1;entryDx=0;entryDy=0;" parent="1" source="jC8zS6o9foFw1oIYdHK3-331" target="oixMLdh2jTHG1NvuXkPw-40" edge="1">
          <mxGeometry width="50" height="50" relative="1" as="geometry">
            <mxPoint x="-130" y="490" as="sourcePoint" />
            <mxPoint x="-80" y="440" as="targetPoint" />
          </mxGeometry>
        </mxCell>
        <mxCell id="oixMLdh2jTHG1NvuXkPw-44" value="" style="endArrow=none;html=1;rounded=0;exitX=1;exitY=0.5;exitDx=0;exitDy=0;entryX=0;entryY=0.5;entryDx=0;entryDy=0;" parent="1" source="jC8zS6o9foFw1oIYdHK3-331" target="oixMLdh2jTHG1NvuXkPw-41" edge="1">
          <mxGeometry width="50" height="50" relative="1" as="geometry">
            <mxPoint x="-70" y="490" as="sourcePoint" />
            <mxPoint x="-20" y="440" as="targetPoint" />
          </mxGeometry>
        </mxCell>
        <mxCell id="oixMLdh2jTHG1NvuXkPw-45" value="" style="endArrow=none;html=1;rounded=0;entryX=1;entryY=1;entryDx=0;entryDy=0;exitX=0;exitY=0.5;exitDx=0;exitDy=0;" parent="1" source="oixMLdh2jTHG1NvuXkPw-42" target="jC8zS6o9foFw1oIYdHK3-331" edge="1">
          <mxGeometry width="50" height="50" relative="1" as="geometry">
            <mxPoint x="-110" y="570" as="sourcePoint" />
            <mxPoint x="-60" y="520" as="targetPoint" />
          </mxGeometry>
        </mxCell>
        <mxCell id="mFQsL8qK1Va90X36TC_p-8" value="year" style="ellipse;whiteSpace=wrap;html=1;align=center;fillColor=#fa6800;fontColor=#000000;strokeColor=#C73500;" parent="1" vertex="1">
          <mxGeometry x="-370" y="10" width="100" height="40" as="geometry" />
        </mxCell>
        <mxCell id="mFQsL8qK1Va90X36TC_p-9" value="" style="endArrow=none;html=1;rounded=0;exitX=0.652;exitY=0.077;exitDx=0;exitDy=0;exitPerimeter=0;entryX=0.5;entryY=1;entryDx=0;entryDy=0;" parent="1" source="jC8zS6o9foFw1oIYdHK3-318" target="mFQsL8qK1Va90X36TC_p-8" edge="1">
          <mxGeometry relative="1" as="geometry">
            <mxPoint x="-330" y="70" as="sourcePoint" />
            <mxPoint x="-170" y="70" as="targetPoint" />
          </mxGeometry>
        </mxCell>
        <mxCell id="mFQsL8qK1Va90X36TC_p-10" value="Engine_supplier" style="ellipse;whiteSpace=wrap;html=1;align=center;fillColor=#fa6800;fontColor=#000000;strokeColor=#C73500;" parent="1" vertex="1">
          <mxGeometry x="1460" y="820" width="100" height="40" as="geometry" />
        </mxCell>
        <mxCell id="mFQsL8qK1Va90X36TC_p-11" value="main sponsor" style="ellipse;whiteSpace=wrap;html=1;align=center;fillColor=#fa6800;fontColor=#000000;strokeColor=#C73500;" parent="1" vertex="1">
          <mxGeometry x="1400" y="900" width="100" height="40" as="geometry" />
        </mxCell>
        <mxCell id="mFQsL8qK1Va90X36TC_p-13" value="" style="endArrow=none;html=1;rounded=0;exitX=1;exitY=0.5;exitDx=0;exitDy=0;entryX=0;entryY=0.5;entryDx=0;entryDy=0;" parent="1" source="jC8zS6o9foFw1oIYdHK3-302" target="mFQsL8qK1Va90X36TC_p-10" edge="1">
          <mxGeometry relative="1" as="geometry">
            <mxPoint x="1380" y="790" as="sourcePoint" />
            <mxPoint x="1540" y="790" as="targetPoint" />
          </mxGeometry>
        </mxCell>
        <mxCell id="mFQsL8qK1Va90X36TC_p-14" value="" style="endArrow=none;html=1;rounded=0;exitX=0.692;exitY=1.082;exitDx=0;exitDy=0;exitPerimeter=0;entryX=0;entryY=0;entryDx=0;entryDy=0;" parent="1" source="jC8zS6o9foFw1oIYdHK3-302" target="mFQsL8qK1Va90X36TC_p-11" edge="1">
          <mxGeometry relative="1" as="geometry">
            <mxPoint x="1370" y="880" as="sourcePoint" />
            <mxPoint x="1530" y="880" as="targetPoint" />
          </mxGeometry>
        </mxCell>
        <mxCell id="mFQsL8qK1Va90X36TC_p-15" value="" style="shape=link;html=1;rounded=0;exitX=0.5;exitY=1;exitDx=0;exitDy=0;entryX=0.5;entryY=0;entryDx=0;entryDy=0;" parent="1" source="jC8zS6o9foFw1oIYdHK3-155" target="jC8zS6o9foFw1oIYdHK3-269" edge="1">
          <mxGeometry relative="1" as="geometry">
            <mxPoint x="-410" y="360" as="sourcePoint" />
            <mxPoint x="-250" y="360" as="targetPoint" />
          </mxGeometry>
        </mxCell>
        <mxCell id="mFQsL8qK1Va90X36TC_p-18" value="PitStops" style="shape=ext;margin=3;double=1;whiteSpace=wrap;html=1;align=center;" parent="1" vertex="1">
          <mxGeometry x="-895" y="540" width="100" height="40" as="geometry" />
        </mxCell>
        <mxCell id="mFQsL8qK1Va90X36TC_p-19" value="happens in" style="shape=rhombus;double=1;perimeter=rhombusPerimeter;whiteSpace=wrap;html=1;align=center;" parent="1" vertex="1">
          <mxGeometry x="-680" y="530" width="120" height="60" as="geometry" />
        </mxCell>
        <mxCell id="mFQsL8qK1Va90X36TC_p-20" value="" style="shape=flexArrow;endArrow=classic;html=1;rounded=0;exitX=1;exitY=0.5;exitDx=0;exitDy=0;entryX=0;entryY=0.5;entryDx=0;entryDy=0;" parent="1" source="mFQsL8qK1Va90X36TC_p-18" target="mFQsL8qK1Va90X36TC_p-19" edge="1">
          <mxGeometry width="50" height="50" relative="1" as="geometry">
            <mxPoint x="-810" y="530" as="sourcePoint" />
            <mxPoint x="-760" y="480" as="targetPoint" />
          </mxGeometry>
        </mxCell>
        <mxCell id="mFQsL8qK1Va90X36TC_p-22" value="" style="shape=link;html=1;rounded=0;exitX=1;exitY=0.5;exitDx=0;exitDy=0;entryX=0;entryY=0.25;entryDx=0;entryDy=0;" parent="1" source="mFQsL8qK1Va90X36TC_p-19" target="jC8zS6o9foFw1oIYdHK3-270" edge="1">
          <mxGeometry relative="1" as="geometry">
            <mxPoint x="-600" y="609.26" as="sourcePoint" />
            <mxPoint x="-440" y="609.26" as="targetPoint" />
          </mxGeometry>
        </mxCell>
        <mxCell id="mFQsL8qK1Va90X36TC_p-27" value="workers" style="ellipse;shape=doubleEllipse;margin=3;whiteSpace=wrap;html=1;align=center;fillColor=#1ba1e2;fontColor=#ffffff;strokeColor=#006EAF;" parent="1" vertex="1">
          <mxGeometry x="-910" y="660" width="100" height="40" as="geometry" />
        </mxCell>
        <mxCell id="mFQsL8qK1Va90X36TC_p-29" value="" style="endArrow=none;html=1;rounded=0;entryX=0.75;entryY=1;entryDx=0;entryDy=0;exitX=0.226;exitY=0.057;exitDx=0;exitDy=0;exitPerimeter=0;" parent="1" source="mFQsL8qK1Va90X36TC_p-43" target="mFQsL8qK1Va90X36TC_p-18" edge="1">
          <mxGeometry width="50" height="50" relative="1" as="geometry">
            <mxPoint x="-730" y="640.0000000000002" as="sourcePoint" />
            <mxPoint x="-840" y="550" as="targetPoint" />
          </mxGeometry>
        </mxCell>
        <mxCell id="mFQsL8qK1Va90X36TC_p-30" value="" style="endArrow=none;html=1;rounded=0;exitX=0.801;exitY=0.125;exitDx=0;exitDy=0;exitPerimeter=0;entryX=0.5;entryY=1;entryDx=0;entryDy=0;" parent="1" source="mFQsL8qK1Va90X36TC_p-27" target="mFQsL8qK1Va90X36TC_p-18" edge="1">
          <mxGeometry width="50" height="50" relative="1" as="geometry">
            <mxPoint x="-920" y="600" as="sourcePoint" />
            <mxPoint x="-870" y="550" as="targetPoint" />
          </mxGeometry>
        </mxCell>
        <mxCell id="mFQsL8qK1Va90X36TC_p-31" value="&lt;span style=&quot;border-bottom: 1px dotted&quot;&gt;time&lt;/span&gt;" style="ellipse;whiteSpace=wrap;html=1;align=center;" parent="1" vertex="1">
          <mxGeometry x="-1020" y="590" width="100" height="40" as="geometry" />
        </mxCell>
        <mxCell id="mFQsL8qK1Va90X36TC_p-32" value="tyres" style="ellipse;whiteSpace=wrap;html=1;align=center;fillColor=#1ba1e2;fontColor=#ffffff;strokeColor=#006EAF;" parent="1" vertex="1">
          <mxGeometry x="-950" y="460" width="100" height="40" as="geometry" />
        </mxCell>
        <mxCell id="mFQsL8qK1Va90X36TC_p-35" value="type_of_new" style="ellipse;whiteSpace=wrap;html=1;align=center;fillColor=#fa6800;fontColor=#000000;strokeColor=#C73500;" parent="1" vertex="1">
          <mxGeometry x="-920" y="390" width="100" height="40" as="geometry" />
        </mxCell>
        <mxCell id="mFQsL8qK1Va90X36TC_p-36" value="type_of_old" style="ellipse;whiteSpace=wrap;html=1;align=center;fillColor=#fa6800;fontColor=#000000;strokeColor=#C73500;" parent="1" vertex="1">
          <mxGeometry x="-1040" y="410" width="100" height="40" as="geometry" />
        </mxCell>
        <mxCell id="mFQsL8qK1Va90X36TC_p-37" value="" style="endArrow=none;html=1;rounded=0;exitX=0.943;exitY=0.275;exitDx=0;exitDy=0;exitPerimeter=0;entryX=0;entryY=0.5;entryDx=0;entryDy=0;" parent="1" source="mFQsL8qK1Va90X36TC_p-31" target="mFQsL8qK1Va90X36TC_p-18" edge="1">
          <mxGeometry relative="1" as="geometry">
            <mxPoint x="-1040" y="520" as="sourcePoint" />
            <mxPoint x="-880" y="520" as="targetPoint" />
          </mxGeometry>
        </mxCell>
        <mxCell id="mFQsL8qK1Va90X36TC_p-39" value="" style="endArrow=none;html=1;rounded=0;exitX=0.5;exitY=1;exitDx=0;exitDy=0;entryX=0.25;entryY=0;entryDx=0;entryDy=0;" parent="1" source="mFQsL8qK1Va90X36TC_p-32" target="mFQsL8qK1Va90X36TC_p-18" edge="1">
          <mxGeometry relative="1" as="geometry">
            <mxPoint x="-790" y="500" as="sourcePoint" />
            <mxPoint x="-630" y="500" as="targetPoint" />
          </mxGeometry>
        </mxCell>
        <mxCell id="mFQsL8qK1Va90X36TC_p-40" value="" style="endArrow=none;html=1;rounded=0;exitX=1;exitY=1;exitDx=0;exitDy=0;entryX=0;entryY=0;entryDx=0;entryDy=0;" parent="1" source="mFQsL8qK1Va90X36TC_p-36" target="mFQsL8qK1Va90X36TC_p-32" edge="1">
          <mxGeometry relative="1" as="geometry">
            <mxPoint x="-990" y="470" as="sourcePoint" />
            <mxPoint x="-830" y="470" as="targetPoint" />
          </mxGeometry>
        </mxCell>
        <mxCell id="mFQsL8qK1Va90X36TC_p-41" value="" style="endArrow=none;html=1;rounded=0;exitX=0.5;exitY=0;exitDx=0;exitDy=0;entryX=0.5;entryY=1;entryDx=0;entryDy=0;" parent="1" source="mFQsL8qK1Va90X36TC_p-32" target="mFQsL8qK1Va90X36TC_p-35" edge="1">
          <mxGeometry relative="1" as="geometry">
            <mxPoint x="-800" y="450" as="sourcePoint" />
            <mxPoint x="-640" y="450" as="targetPoint" />
          </mxGeometry>
        </mxCell>
        <mxCell id="mFQsL8qK1Va90X36TC_p-43" value="&lt;span style=&quot;border-bottom: 1px dotted&quot;&gt;duration&lt;br&gt;&lt;/span&gt;" style="ellipse;whiteSpace=wrap;html=1;align=center;" parent="1" vertex="1">
          <mxGeometry x="-760" y="640" width="100" height="40" as="geometry" />
        </mxCell>
        <mxCell id="qzkVbkbdIGwvGCc_TYza-2" value="" style="endArrow=classic;html=1;rounded=0;entryX=0;entryY=0.5;entryDx=0;entryDy=0;" parent="1" target="jC8zS6o9foFw1oIYdHK3-291" edge="1">
          <mxGeometry width="50" height="50" relative="1" as="geometry">
            <mxPoint x="-170" y="340" as="sourcePoint" />
            <mxPoint x="-90" y="320" as="targetPoint" />
          </mxGeometry>
        </mxCell>
        <mxCell id="qzkVbkbdIGwvGCc_TYza-3" value="" style="endArrow=none;html=1;rounded=0;exitX=1;exitY=0.5;exitDx=0;exitDy=0;entryX=0;entryY=0;entryDx=0;entryDy=0;" parent="1" source="jC8zS6o9foFw1oIYdHK3-291" target="jC8zS6o9foFw1oIYdHK3-171" edge="1">
          <mxGeometry width="50" height="50" relative="1" as="geometry">
            <mxPoint x="130" y="370" as="sourcePoint" />
            <mxPoint x="180" y="320" as="targetPoint" />
          </mxGeometry>
        </mxCell>
      </root>
    </mxGraphModel>
  </diagram>
</mxfile>
